<?xml version="1.0" encoding="utf-8"?>
<!-- Generator: Adobe Illustrator 18.0.0, SVG Export Plug-In . SVG Version: 6.00 Build 0)  -->
<!DOCTYPE svg PUBLIC "-//W3C//DTD SVG 1.1//EN" "http://www.w3.org/Graphics/SVG/1.1/DTD/svg11.dtd">
<svg version="1.1" id="Layer_1" xmlns="http://www.w3.org/2000/svg" xmlns:xlink="http://www.w3.org/1999/xlink" x="0px" y="0px"
	 viewBox="0.7 4.7 8.6 5" enable-background="new 0.7 4.7 8.6 5" xml:space="preserve">
<path fill="#BCBCBC" d="M0.8,5c-0.2,0.2-0.2,0.5,0,0.7l3.6,3.6l0.2,0.2c0,0,0.1,0.1,0.2,0.1c0.2,0.1,0.4,0,0.5-0.1l0.2-0.2
	c0,0,0,0,0,0l3.6-3.6c0.2-0.2,0.2-0.5,0-0.7L9,4.8c-0.2-0.2-0.5-0.2-0.7,0L5,8.1L1.7,4.8C1.5,4.7,1.2,4.7,1,4.8L0.8,5z"/>
</svg>
