<svg xmlns="http://www.w3.org/2000/svg" width="37.7" height="37.7" viewBox="0 0 37.7 37.7">
  <path id="Icon_material-call" data-name="Icon material-call" d="M12.082,20.816a31.728,31.728,0,0,0,13.8,13.8l4.608-4.608a2.082,2.082,0,0,1,2.136-.5A23.891,23.891,0,0,0,40.106,30.7,2.1,2.1,0,0,1,42.2,32.8v7.31A2.1,2.1,0,0,1,40.106,42.2,35.6,35.6,0,0,1,4.5,6.594,2.1,2.1,0,0,1,6.594,4.5h7.331a2.1,2.1,0,0,1,2.094,2.094,23.794,23.794,0,0,0,1.194,7.477,2.1,2.1,0,0,1-.524,2.136l-4.608,4.608Z" transform="translate(-4.5 -4.5)"/>
</svg>
