<svg xmlns="http://www.w3.org/2000/svg" width="55.85" height="37.7" viewBox="0 0 55.85 37.7">
  <path id="Icon_zocial-email" data-name="Icon zocial-email" d="M.072,38.429V7.407q0-.054.162-1.023L18.491,22l-18.2,17.5a4.564,4.564,0,0,1-.215-1.077ZM2.5,4.23a2.321,2.321,0,0,1,.916-.162H52.583a3.05,3.05,0,0,1,.969.162L35.241,19.9l-2.424,1.939-4.793,3.932-4.793-3.932L20.807,19.9Zm.054,37.377L20.915,24l7.109,5.763L35.133,24,53.5,41.606a2.586,2.586,0,0,1-.916.162H3.411a2.439,2.439,0,0,1-.862-.162ZM37.557,22,55.76,6.384a3.215,3.215,0,0,1,.162,1.023V38.429a4.128,4.128,0,0,1-.162,1.077Z" transform="translate(-0.072 -4.068)"/>
</svg>
