<svg xmlns="http://www.w3.org/2000/svg" width="25" height="25" viewBox="0 0 25 25">
  <g id="ig" transform="translate(-1563 -1044)">
    <circle id="Ellipse_23" data-name="Ellipse 23" cx="12.5" cy="12.5" r="12.5" transform="translate(1563 1044)"/>
    <path id="Icon_awesome-instagram" data-name="Icon awesome-instagram" d="M7.768,6.023a3.984,3.984,0,1,0,3.984,3.984A3.978,3.978,0,0,0,7.768,6.023Zm0,6.574a2.59,2.59,0,1,1,2.59-2.59A2.595,2.595,0,0,1,7.768,12.6ZM12.844,5.86a.929.929,0,1,1-.929-.929A.927.927,0,0,1,12.844,5.86Zm2.639.943a4.6,4.6,0,0,0-1.255-3.256,4.629,4.629,0,0,0-3.256-1.255c-1.283-.073-5.128-.073-6.411,0A4.622,4.622,0,0,0,1.3,3.544,4.614,4.614,0,0,0,.049,6.8c-.073,1.283-.073,5.128,0,6.411A4.6,4.6,0,0,0,1.3,16.468a4.635,4.635,0,0,0,3.256,1.255c1.283.073,5.128.073,6.411,0a4.6,4.6,0,0,0,3.256-1.255,4.629,4.629,0,0,0,1.255-3.256c.073-1.283.073-5.125,0-6.408Zm-1.657,7.785a2.622,2.622,0,0,1-1.477,1.477,17.126,17.126,0,0,1-4.581.312,17.26,17.26,0,0,1-4.581-.312A2.622,2.622,0,0,1,1.71,14.588,17.126,17.126,0,0,1,1.4,10.008,17.26,17.26,0,0,1,1.71,5.427,2.622,2.622,0,0,1,3.187,3.95a17.126,17.126,0,0,1,4.581-.312,17.259,17.259,0,0,1,4.581.312,2.622,2.622,0,0,1,1.477,1.477,17.126,17.126,0,0,1,.312,4.581A17.116,17.116,0,0,1,13.826,14.588Z" transform="translate(1567.734 1046.53)" fill="#fff"/>
  </g>
</svg>
