<svg xmlns="http://www.w3.org/2000/svg" width="25" height="25" viewBox="0 0 25 25">
  <g id="linkedin" transform="translate(-1642 -1044)">
    <circle id="Ellipse_25" data-name="Ellipse 25" cx="12.5" cy="12.5" r="12.5" transform="translate(1642 1044)"/>
    <path id="Icon_awesome-linkedin-in" data-name="Icon awesome-linkedin-in" d="M2.907,12.987H.215V4.317H2.907ZM1.559,3.134A1.567,1.567,0,1,1,3.119,1.56,1.572,1.572,0,0,1,1.559,3.134Zm11.425,9.853H10.3V8.767c0-1.006-.02-2.3-1.4-2.3-1.4,0-1.614,1.093-1.614,2.223v4.293H4.594V4.317H7.176V5.5h.038A2.829,2.829,0,0,1,9.761,4.1c2.725,0,3.226,1.794,3.226,4.125v4.763Z" transform="translate(1648.006 1049.768)" fill="#fff"/>
  </g>
</svg>
