<svg xmlns="http://www.w3.org/2000/svg" width="25" height="25" viewBox="0 0 25 25">
  <g id="twitter" transform="translate(-1603 -1044)">
    <circle id="Ellipse_24" data-name="Ellipse 24" cx="12.5" cy="12.5" r="12.5" transform="translate(1603 1044)"/>
    <path id="Icon_awesome-twitter" data-name="Icon awesome-twitter" d="M13.078,6.331c.009.129.009.259.009.388a8.442,8.442,0,0,1-8.5,8.5A8.442,8.442,0,0,1,0,13.878a6.18,6.18,0,0,0,.721.037A5.983,5.983,0,0,0,4.43,12.639a2.993,2.993,0,0,1-2.793-2.072,3.767,3.767,0,0,0,.564.046,3.16,3.16,0,0,0,.786-.1A2.988,2.988,0,0,1,.592,7.58V7.543a3.009,3.009,0,0,0,1.35.379,2.992,2.992,0,0,1-.925-4,8.492,8.492,0,0,0,6.16,3.126A3.372,3.372,0,0,1,7.1,6.368a2.99,2.99,0,0,1,5.17-2.044,5.882,5.882,0,0,0,1.9-.721,2.979,2.979,0,0,1-1.313,1.646,5.989,5.989,0,0,0,1.72-.462,6.422,6.422,0,0,1-1.5,1.545Z" transform="translate(1608.212 1047.536)" fill="#fff"/>
  </g>
</svg>
