<svg xmlns="http://www.w3.org/2000/svg" width="43.255" height="43.85" viewBox="0 0 43.255 43.85">
  <g id="Icon_zocial-www" data-name="Icon zocial-www" transform="translate(-73.312 -99.278)">
    <path id="Path_110" data-name="Path 110" d="M89.57,111.689a22.486,22.486,0,0,0-21.493,15.417h3.185a18.37,18.37,0,0,1,1.184-2.549h6.13a25.83,25.83,0,0,0-.669,2.549h3.1a23.966,23.966,0,0,1,.783-2.549H87.71v2.549h3v-2.549H97.1a22.366,22.366,0,0,1,.877,2.549h3.1a25.073,25.073,0,0,0-.749-2.549h6.364a18.362,18.362,0,0,1,1.184,2.549h3.179A22.478,22.478,0,0,0,89.57,111.689Zm4.524,3.526a19.528,19.528,0,0,1,10.513,6.344H99.046a21.029,21.029,0,0,0-4.952-6.344Zm-9.924.221a19.907,19.907,0,0,0-4.416,6.123H74.534A19.5,19.5,0,0,1,84.17,115.436Zm6.538.964a17.277,17.277,0,0,1,4.838,5.159H90.708Zm-3,.02v5.139H83.193A15.871,15.871,0,0,1,87.71,116.42ZM68.974,130a1.281,1.281,0,0,0-.749.207.616.616,0,0,0-.3.515,1.979,1.979,0,0,0,.141.629l1.593,4.577c.049.137.1.291.167.455a1.565,1.565,0,0,0,.254.435,1.046,1.046,0,0,0,.422.294,1.775,1.775,0,0,0,.669.107,1.531,1.531,0,0,0,.8-.181,1.092,1.092,0,0,0,.422-.395,7.183,7.183,0,0,0,.294-.676l1.425-4.015,1.419,4.035c.118.3.212.52.288.662a1.061,1.061,0,0,0,.415.395,1.573,1.573,0,0,0,.8.174,1.55,1.55,0,0,0,.823-.181,1.078,1.078,0,0,0,.408-.415,6.63,6.63,0,0,0,.274-.7l1.593-4.577a2.2,2.2,0,0,0,.147-.629.611.611,0,0,0-.308-.515,1.289,1.289,0,0,0-.743-.207,1.179,1.179,0,0,0-.676.161.917.917,0,0,0-.321.355,3.74,3.74,0,0,0-.181.5l-1.124,3.895-1.258-3.647a6.819,6.819,0,0,0-.288-.669,1.149,1.149,0,0,0-.422-.408,1.6,1.6,0,0,0-.85-.187,1.687,1.687,0,0,0-.85.181,1.162,1.162,0,0,0-.448.422,4.856,4.856,0,0,0-.288.662l-1.251,3.647-1.131-3.921a2.226,2.226,0,0,0-.341-.716.99.99,0,0,0-.823-.274Zm15.411,0a1.281,1.281,0,0,0-.749.207.616.616,0,0,0-.3.515,2.029,2.029,0,0,0,.147.629l1.593,4.577c.049.137.1.291.167.455a1.548,1.548,0,0,0,.248.435,1.046,1.046,0,0,0,.422.294,1.775,1.775,0,0,0,.669.107,1.557,1.557,0,0,0,.8-.181,1.068,1.068,0,0,0,.415-.395,7.183,7.183,0,0,0,.294-.676l1.425-4.015,1.419,4.035c.118.3.212.52.288.662a1.061,1.061,0,0,0,.415.395,1.573,1.573,0,0,0,.8.174,1.55,1.55,0,0,0,.823-.181,1.078,1.078,0,0,0,.408-.415,6.628,6.628,0,0,0,.274-.7l1.593-4.577a2.2,2.2,0,0,0,.147-.629.611.611,0,0,0-.308-.515,1.289,1.289,0,0,0-.743-.207,1.179,1.179,0,0,0-.676.161.917.917,0,0,0-.321.355,3.742,3.742,0,0,0-.181.5l-1.124,3.895-1.258-3.647a6.822,6.822,0,0,0-.288-.669,1.124,1.124,0,0,0-.415-.408,1.6,1.6,0,0,0-.85-.187,1.714,1.714,0,0,0-.857.181,1.162,1.162,0,0,0-.448.422,4.856,4.856,0,0,0-.288.662l-1.251,3.647-1.131-3.921a2.224,2.224,0,0,0-.335-.716,1,1,0,0,0-.83-.274ZM99.8,130a1.281,1.281,0,0,0-.749.207.616.616,0,0,0-.3.515,2.029,2.029,0,0,0,.147.629l1.593,4.577c.049.137.1.291.167.455a1.549,1.549,0,0,0,.248.435,1.047,1.047,0,0,0,.422.294,1.775,1.775,0,0,0,.669.107,1.557,1.557,0,0,0,.8-.181,1.068,1.068,0,0,0,.415-.395,6.857,6.857,0,0,0,.3-.676l1.419-4.015,1.419,4.035c.118.3.212.52.288.662a1.061,1.061,0,0,0,.415.395,1.573,1.573,0,0,0,.8.174,1.55,1.55,0,0,0,.823-.181,1.078,1.078,0,0,0,.408-.415,6.625,6.625,0,0,0,.274-.7l1.593-4.577a2.2,2.2,0,0,0,.147-.629.6.6,0,0,0-.3-.515,1.311,1.311,0,0,0-.749-.207,1.179,1.179,0,0,0-.676.161.917.917,0,0,0-.321.355,3.744,3.744,0,0,0-.181.5l-1.117,3.895-1.265-3.647a6.821,6.821,0,0,0-.288-.669,1.124,1.124,0,0,0-.415-.408,1.6,1.6,0,0,0-.85-.187,1.714,1.714,0,0,0-.857.181,1.162,1.162,0,0,0-.448.422,4.856,4.856,0,0,0-.288.662l-1.251,3.647-1.124-3.921a2.225,2.225,0,0,0-.341-.716A1,1,0,0,0,99.8,130Zm-31.832,9.723a22.669,22.669,0,0,0,43.214,0h-3.165a18.464,18.464,0,0,1-1.084,2.5H100.5a25.5,25.5,0,0,0,.689-2.5H98.136a20.954,20.954,0,0,1-.783,2.5H90.708v-2.5h-3v2.5H81.641a25.368,25.368,0,0,1-.709-2.5H77.853c.172.845.383,1.679.622,2.5H72.212a18.5,18.5,0,0,1-1.091-2.5H67.963Zm6.217,5.494h5.373a19.035,19.035,0,0,0,4.423,6.524A19.46,19.46,0,0,1,74.18,145.22Zm8.712,0H87.71v5.6A14.282,14.282,0,0,1,82.892,145.22Zm7.816,0H95.86a16.418,16.418,0,0,1-5.153,5.46Zm8.6,0h5.654a19.5,19.5,0,0,1-11.014,6.832,20.182,20.182,0,0,0,5.36-6.832Z" transform="translate(5.389 -12.411)"/>
  </g>
</svg>
