<svg xmlns="http://www.w3.org/2000/svg" width="25" height="25" viewBox="0 0 25 25">
  <g id="youtube" transform="translate(-1483 -1044)">
    <circle id="Ellipse_22" data-name="Ellipse 22" cx="12.5" cy="12.5" r="12.5" transform="translate(1483 1044)"/>
    <path id="Icon_simple-youtube" data-name="Icon simple-youtube" d="M15.757,7.16a2.016,2.016,0,0,0-1.4-1.4,48.307,48.307,0,0,0-6.3-.336,47.228,47.228,0,0,0-6.3.336,2.016,2.016,0,0,0-1.4,1.4,20.951,20.951,0,0,0-.35,3.892,20.951,20.951,0,0,0,.35,3.877,2.016,2.016,0,0,0,1.4,1.4,48.2,48.2,0,0,0,6.3.337,48.316,48.316,0,0,0,6.3-.337,2.016,2.016,0,0,0,1.4-1.4,20.951,20.951,0,0,0,.335-3.877,20.951,20.951,0,0,0-.335-3.892Zm-9.31,6.3V8.637l4.2,2.415Z" transform="translate(1487.348 1045.493)" fill="#fff"/>
  </g>
</svg>
